<svg xmlns="http://www.w3.org/2000/svg" viewBox="0 0 490 62"><path d="M85 32.1h6v4h.2c.5-.7 1-1.4 1.6-2s1.2-1.1 1.9-1.5c.7-.4 1.5-.7 2.4-1 .9-.2 1.9-.4 3.1-.4 1.7 0 3.4.4 4.9 1.2 1.5.8 2.6 2 3.2 3.6 1.1-1.5 2.3-2.7 3.7-3.5 1.4-.9 3.2-1.3 5.3-1.3 3 0 5.4.7 7.1 2.2s2.5 4 2.5 7.5v19.9h-6.4V44.1c0-1.2 0-2.2-.1-3.2s-.3-1.8-.6-2.5c-.4-.7-.9-1.2-1.6-1.6s-1.7-.6-2.9-.6c-2.2 0-3.7.7-4.7 2s-1.5 3.2-1.5 5.7v16.9h-6.4V42.3c0-2-.4-3.5-1.1-4.5s-2.1-1.5-4-1.5c-.8 0-1.6.2-2.4.5s-1.4.8-2 1.5c-.6.6-1 1.4-1.4 2.3s-.5 2-.5 3.2v17.1h-6.4l.1-28.8zm50.3-11h6.4v6h-6.4v-6zm0 11h6.4v28.8h-6.4V32.1zm12.3 0h4.8v-8.6h6.4v8.6h5.7v4.7h-5.7v15.4c0 .7 0 1.2.1 1.7s.2.9.4 1.2c.2.3.5.6.9.8.4.2 1 .2 1.7.2h1.3c.4 0 .9-.1 1.3-.2v4.9c-.7.1-1.4.1-2.1.2s-1.4.1-2.1.1c-1.7 0-3-.2-4-.5s-1.8-.8-2.4-1.4-1-1.4-1.2-2.3-.3-2-.4-3.2v-17h-4.8v-4.6h.1zm28.7 19.6c.2 1.9.9 3.2 2.1 3.9 1.2.7 2.7 1.1 4.4 1.1.6 0 1.3 0 2-.1.8-.1 1.5-.3 2.1-.5.7-.3 1.2-.6 1.6-1.1s.6-1.2.6-2-.3-1.5-.9-2-1.3-.9-2.2-1.3c-.9-.3-1.9-.6-3-.8-1.1-.2-2.2-.5-3.4-.7-1.2-.3-2.3-.6-3.4-.9-1.1-.4-2.1-.9-3-1.5s-1.6-1.4-2.1-2.4-.8-2.2-.8-3.7c0-1.6.4-2.9 1.1-3.9.8-1.1 1.7-1.9 2.9-2.6 1.2-.7 2.5-1.1 3.9-1.4s2.8-.4 4.1-.4c1.5 0 2.9.2 4.3.5s2.6.8 3.7 1.5 2 1.6 2.7 2.8c.7 1.1 1.2 2.5 1.4 4.1h-6.6c-.3-1.5-1-2.6-2.1-3.1s-2.4-.8-3.8-.8c-.4 0-1 0-1.6.1s-1.2.2-1.7.4-1 .5-1.4.9-.6.9-.6 1.5c0 .8.3 1.4.8 1.9s1.2.9 2.1 1.2c.9.3 1.9.6 3 .8 1.1.2 2.3.5 3.5.7 1.2.3 2.3.6 3.4.9 1.1.4 2.1.9 3 1.5s1.6 1.4 2.1 2.4.8 2.2.8 3.6c0 1.7-.4 3.2-1.2 4.4-.8 1.2-1.8 2.2-3 2.9-1.2.7-2.6 1.3-4.2 1.6-1.5.3-3 .5-4.5.5-1.8 0-3.5-.2-5-.6s-2.9-1-4-1.9c-1.1-.8-2-1.9-2.7-3.1s-1-2.7-1-4.4h6.6zm51 9.2h-6.2v-4h-.1c-.8 1.5-1.9 2.6-3.5 3.5-1.5.9-3.1 1.3-4.7 1.3-3.8 0-6.5-.9-8.2-2.8s-2.5-4.7-2.5-8.5V32.1h6.4v17.7c0 2.5.5 4.3 1.4 5.4 1 1 2.3 1.6 4.1 1.6 1.3 0 2.5-.2 3.3-.6.9-.4 1.6-1 2.2-1.6.6-.7 1-1.5 1.2-2.5s.4-2 .4-3.1V32.1h6.4v28.8h-.2zm8.4-39.8h6.4v14.7h.1c.4-.7 1-1.3 1.6-1.9s1.3-1 2.1-1.4c.8-.4 1.6-.7 2.4-.9.8-.2 1.7-.3 2.5-.3 2.3 0 4.2.4 5.9 1.2 1.7.8 3.1 1.9 4.2 3.3s2 3 2.5 4.9c.6 1.9.8 3.8.8 6 0 1.9-.3 3.8-.8 5.6-.5 1.8-1.3 3.4-2.3 4.8s-2.3 2.5-3.9 3.3c-1.6.8-3.4 1.3-5.5 1.3-1 0-1.9-.1-2.9-.2s-1.9-.4-2.8-.8-1.7-.9-2.4-1.5-1.3-1.4-1.8-2.3h-.1v4h-6V21.1zm22.2 25.4c0-1.3-.2-2.6-.5-3.8-.3-1.2-.8-2.3-1.5-3.3-.7-.9-1.5-1.7-2.5-2.3-1-.6-2.2-.9-3.5-.9-2.7 0-4.7.9-6.1 2.8s-2 4.3-2 7.4c0 1.5.2 2.8.5 4 .4 1.2.9 2.3 1.6 3.2.7.9 1.5 1.6 2.5 2.1s2.1.8 3.4.8c1.5 0 2.7-.3 3.7-.9s1.8-1.4 2.5-2.3c.6-1 1.1-2 1.4-3.2.4-1.1.5-2.3.5-3.6m13.3-25.4h6.4v6h-6.4v-6zm0 11h6.4v28.8h-6.4V32.1zm18.9 19.6c.2 1.9.9 3.2 2.1 3.9 1.2.7 2.7 1.1 4.4 1.1.6 0 1.3 0 2-.1.8-.1 1.5-.3 2.2-.5.7-.3 1.2-.6 1.6-1.1s.6-1.2.6-2-.3-1.5-.9-2-1.3-.9-2.1-1.3c-.9-.3-1.9-.6-3-.8-1.1-.2-2.3-.5-3.4-.7-1.2-.3-2.3-.6-3.4-.9-1.1-.4-2.1-.9-3-1.5s-1.6-1.4-2.1-2.4-.8-2.2-.8-3.7c0-1.6.4-2.9 1.1-3.9.8-1.1 1.7-1.9 2.9-2.6 1.2-.7 2.5-1.1 3.9-1.4s2.8-.4 4.1-.4c1.5 0 2.9.2 4.3.5s2.6.8 3.7 1.5 2 1.6 2.7 2.8c.7 1.1 1.2 2.5 1.4 4.1h-6.6c-.3-1.5-1-2.6-2.1-3.1s-2.4-.8-3.8-.8c-.4 0-1 0-1.6.1s-1.2.2-1.7.4-1 .5-1.4.9-.6.9-.6 1.5c0 .8.3 1.4.8 1.9s1.2.9 2.1 1.2c.9.3 1.9.6 3 .8 1.1.2 2.3.5 3.5.7 1.2.3 2.3.6 3.4.9 1.1.4 2.1.9 3 1.5s1.6 1.4 2.1 2.4.8 2.2.8 3.6c0 1.7-.4 3.2-1.2 4.4-.8 1.2-1.8 2.2-3 2.9-1.2.7-2.6 1.3-4.2 1.6-1.5.3-3 .5-4.5.5-1.8 0-3.5-.2-5-.6s-2.9-1-4-1.9c-1.1-.8-2-1.9-2.7-3.1-.6-1.2-1-2.7-1-4.4h6.4zm25.5-30.6h6.4v14.8h.1c.8-1.3 1.9-2.4 3.5-3.3 1.5-.9 3.3-1.3 5.2-1.3 3.2 0 5.7.8 7.5 2.5 1.8 1.6 2.7 4.1 2.7 7.4V61h-6.4V42.9c-.1-2.3-.6-3.9-1.5-4.9s-2.3-1.5-4.2-1.5c-1.1 0-2 .2-2.9.6s-1.6.9-2.2 1.6-1.1 1.5-1.4 2.4-.5 1.9-.5 3v17h-6.4l.1-40zm33.7 0h6.4v6h-6.4v-6zm0 11h6.4v28.8h-6.4V32.1zm14 21.3h7.8v7.5h-7.8zm34.8-11.7c-.3-1.8-1-3.1-2.1-4-1.2-.9-2.7-1.4-4.4-1.4-.8 0-1.7.1-2.6.4-.9.3-1.8.8-2.6 1.6s-1.4 1.8-2 3.2c-.5 1.4-.8 3.1-.8 5.3 0 1.2.1 2.4.4 3.6.3 1.2.7 2.3 1.3 3.2.6.9 1.4 1.7 2.4 2.3 1 .6 2.1.9 3.5.9 1.9 0 3.4-.6 4.6-1.7 1.2-1.2 2-2.8 2.3-4.9h6.4c-.6 3.8-2 6.6-4.3 8.6-2.2 2-5.2 3-8.9 3-2.3 0-4.3-.4-6-1.1-1.7-.8-3.2-1.8-4.4-3.1-1.2-1.3-2.1-2.9-2.7-4.7-.6-1.8-.9-3.8-.9-5.9 0-2.2.3-4.2.9-6.1.6-1.9 1.5-3.5 2.7-4.9s2.7-2.5 4.4-3.3c1.8-.8 3.8-1.2 6.2-1.2 1.7 0 3.3.2 4.8.6s2.8 1.1 4 1.9c1.2.9 2.1 1.9 2.9 3.2.7 1.3 1.2 2.8 1.3 4.6h-6.4v-.1zm27.8 20c-2.3 0-4.4-.4-6.2-1.1-1.8-.8-3.3-1.8-4.6-3.2-1.2-1.3-2.2-2.9-2.8-4.8-.7-1.9-1-3.9-1-6.1s.3-4.2 1-6.1 1.6-3.5 2.8-4.8 2.8-2.4 4.6-3.2c1.8-.8 3.9-1.1 6.2-1.1s4.4.4 6.2 1.1c1.8.8 3.3 1.8 4.6 3.2 1.2 1.3 2.2 2.9 2.8 4.8s1 3.9 1 6.1-.3 4.3-1 6.1c-.7 1.9-1.6 3.5-2.8 4.8s-2.8 2.4-4.6 3.2c-1.8.7-3.9 1.1-6.2 1.1m0-5c1.4 0 2.6-.3 3.7-.9 1-.6 1.9-1.4 2.6-2.3.7-1 1.2-2.1 1.5-3.3.3-1.2.5-2.4.5-3.7 0-1.2-.2-2.5-.5-3.7s-.8-2.3-1.5-3.3c-.7-.9-1.5-1.7-2.6-2.3-1-.6-2.3-.9-3.7-.9s-2.6.3-3.7.9c-1 .6-1.9 1.4-2.6 2.3-.7.9-1.2 2-1.5 3.3-.3 1.2-.5 2.5-.5 3.7 0 1.3.2 2.5.5 3.7s.8 2.3 1.5 3.3 1.5 1.8 2.6 2.3c1.1.6 2.3.9 3.7.9m21.5-24.6h6v4h.2c.5-.7 1-1.4 1.6-2s1.2-1.1 1.9-1.5 1.5-.7 2.4-1c.9-.2 1.9-.4 3.1-.4 1.7 0 3.4.4 4.9 1.2 1.5.8 2.6 2 3.2 3.6 1.1-1.5 2.3-2.7 3.7-3.5 1.4-.9 3.2-1.3 5.3-1.3 3 0 5.4.7 7.1 2.2 1.7 1.5 2.5 4 2.5 7.5v19.9h-6.4V44.1c0-1.2 0-2.2-.1-3.2s-.3-1.8-.6-2.5c-.4-.7-.9-1.2-1.6-1.6-.7-.4-1.7-.6-2.9-.6-2.2 0-3.7.7-4.7 2s-1.4 3.2-1.4 5.7v16.9h-6.4V42.3c0-2-.4-3.5-1.1-4.5-.7-1-2.1-1.5-4-1.5-.8 0-1.6.2-2.4.5-.8.3-1.4.8-2 1.5-.6.6-1 1.4-1.4 2.3s-.5 2-.5 3.2v17.1h-6.4V32.1z"/><path d="M24.1 60.9h-23L12.6 41h23zm23 0h23L58.6 41h-23zm0-39.8L35.6 1.2 24.1 21.1 35.6 41z" fill="#e60012"/></svg>